<svg id="Ebene_1" data-name="Ebene 1" xmlns="http://www.w3.org/2000/svg" viewBox="0 0 1000 440"><defs><style>.cls-1{fill:#39a7df;}.cls-2{fill:none;}.cls-3{fill:#3ba936;}.cls-4{fill:#0b9dd9;}.cls-5{fill:#ff9600;}</style></defs><path class="cls-1" d="M510,115.12q0-8.78,1.46-13.17a24.8,24.8,0,0,1,4.39-7.8,16.86,16.86,0,0,1,6.35-4.88c2.43-1.47,6.34-2,10.24-2a32.35,32.35,0,0,1,10.73,2c2.44,1.46,4.88,2.93,6.34,4.88a21.26,21.26,0,0,1,4.88,7.8q1.47,4.39,1.46,13.17t-1.46,13.17a16.41,16.41,0,0,1-4.88,7.81c-.49,1-1.46,1.46-2.44,2.44a21.1,21.1,0,0,1-3.41,2.44,21.86,21.86,0,0,1-10.73,2.43A19.89,19.89,0,0,1,522.68,141a16.92,16.92,0,0,1-6.34-4.88,24.85,24.85,0,0,1-4.39-7.81C510.49,125.37,510,121,510,115.12Zm34.15,0c0-3.9,0-6.83-.49-8.78a9.29,9.29,0,0,0-1.95-4.39A6.59,6.59,0,0,0,538.29,99c-1.46-1-3.41-1-5.36-1a21.1,21.1,0,0,0-5.37,1,7.61,7.61,0,0,0-3.9,2.93,17.24,17.24,0,0,0-1.95,4.39c-.49,2-.49,4.39-.49,8.29s0,6.83.49,8.3a14.5,14.5,0,0,0,1.95,4.87,13.22,13.22,0,0,0,3.9,2.93c1.46,1,3.42,1,5.37,1a17.41,17.41,0,0,0,5.36-1c1.47-1,2.93-1.95,3.42-2.93,1-1.46,1.95-2.92,1.95-4.87C543.66,121.46,544.15,119,544.15,115.12Z"/><path class="cls-1" d="M566.59,87.8H577.8v5.86c3.91-3.9,8.3-6.34,14.15-6.34q10.24,0,14.64,7.31a14.69,14.69,0,0,1,2.92,6.83,84.91,84.91,0,0,1,1,14.15,89.78,89.78,0,0,1-1,14.15c-.49,2.92-1.46,5.36-2.92,6.83a14.34,14.34,0,0,1-5.86,4.87c-2.44,1.47-5.36,1.95-8.78,1.95-2.93,0-5.36-.48-7.32-1.95a19.94,19.94,0,0,1-6.83-4.87v28.29H566.59Zm21.95,44.4a12.17,12.17,0,0,0,6.34-1.47,13.07,13.07,0,0,0,3.41-3.9c.49-1.46,1-3.42,1.47-5.37V109.27c-.49-2-.49-3.9-1.47-5.37a8.73,8.73,0,0,0-3.41-3.9c-1.47-1-3.42-1.46-6.34-1.46a10.4,10.4,0,0,0-5.86,1.46,13.19,13.19,0,0,0-3.41,3.9c-.49,1.47-1,3.42-1.47,5.37,0,2-.48,3.9-.48,6.34a24.1,24.1,0,0,0,.48,5.85,9.81,9.81,0,0,0,1.47,5.37,8.68,8.68,0,0,0,3.41,3.9A10.4,10.4,0,0,0,588.54,132.2Z"/><path class="cls-1" d="M631,119.51a14,14,0,0,0,3.9,10.25c2.44,2.44,5.36,3.41,9.27,3.41,4.39,0,8.29-1.95,12.19-5.37l7.81,6.83a26.26,26.26,0,0,1-20,8.78,22.72,22.72,0,0,1-8.3-1.46A9.82,9.82,0,0,1,632,140c-1.46-.49-2.44-1.46-3.9-2.44a19.81,19.81,0,0,1-5.85-8.78,35.87,35.87,0,0,1-2.44-13.66c0-5.36.48-9.75,2-13.66a22.32,22.32,0,0,1,5.36-8.78,19.34,19.34,0,0,1,7.32-4.88,22.24,22.24,0,0,1,7.81-1.46c6.34,0,11.7,2,16.09,6.34,4.39,3.91,6.83,9.76,6.83,17.08V119H631Zm23.41-9.27a14.68,14.68,0,0,0-3.41-9.75c-2-1.95-4.88-2.93-8.3-2.93a12.32,12.32,0,0,0-8.29,2.93c-1.95,2-3.41,5.36-3.41,9.75Z"/><path class="cls-1" d="M676.83,87.8h11.22v5.86h0c3.41-4.39,8.29-6.34,14.15-6.34a18.87,18.87,0,0,1,12.68,4.88c3.9,3.41,5.85,7.8,5.85,14.14v36.59H709.51V110.24q0-5.85-2.92-8.78a11.89,11.89,0,0,0-15.61,0c-2,2-2.93,4.88-2.93,8.78v32.69H676.83Z"/><path class="cls-1" d="M520.73,231.71a14,14,0,0,0,3.9,10.24c2.44,2.44,5.37,3.42,9.27,3.42,4.39,0,8.3-2,12.2-5.37l7.8,6.83a26.27,26.27,0,0,1-20,8.78,22.92,22.92,0,0,1-8.29-1.46,9.88,9.88,0,0,1-3.9-2c-1.47-.49-2.44-1.47-3.91-2.44A20,20,0,0,1,512,241a36.14,36.14,0,0,1-2.44-13.66c0-5.37.49-9.76,1.95-13.66a22.45,22.45,0,0,1,5.37-8.78,19.34,19.34,0,0,1,7.32-4.88,22,22,0,0,1,7.8-1.46c6.34,0,11.71,2,16.1,6.34,4.39,3.9,6.83,9.75,6.83,17.07v9.27H520.73Zm23.42-8.78a14.71,14.71,0,0,0-3.42-9.76c-2-1.95-4.88-2.93-8.29-2.93a12.3,12.3,0,0,0-8.29,2.93c-1.95,2-3.42,5.37-3.42,9.76Z"/><path class="cls-1" d="M599.27,249.27a18.43,18.43,0,0,1-14.15,6.34,18.94,18.94,0,0,1-8.29-2,31.18,31.18,0,0,1-6.34-4.88,14.51,14.51,0,0,1-2.93-6.83,85.21,85.21,0,0,1-1-14.15,85.16,85.16,0,0,1,1-14.14,14.51,14.51,0,0,1,2.93-6.83q4.38-6.59,14.63-7.32a14.36,14.36,0,0,1,7.81,2,31.54,31.54,0,0,1,6.34,4.88v-27.8h11.22v77.07H599.27Zm-10.73-38.54a10.4,10.4,0,0,0-5.86,1.47,13,13,0,0,0-3.41,3.9c-.49,1.46-1,3.41-1.47,5.36,0,1.95-.48,4.39-.48,6.34a24.14,24.14,0,0,0,.48,5.86,9.78,9.78,0,0,0,1.47,5.36,8.7,8.7,0,0,0,3.41,3.91,10.48,10.48,0,0,0,5.86,1.46,12.27,12.27,0,0,0,6.34-1.46A7.56,7.56,0,0,0,597.8,239c.49-1.46,1-3.41,1.47-5.36V222c-.49-1.95-.49-3.9-1.47-5.36a7.56,7.56,0,0,0-2.92-3.91C593.41,211.22,591,210.73,588.54,210.73Z"/><path class="cls-1" d="M622.68,200.49H633.9v32.68q0,5.85,2.93,8.78a11.86,11.86,0,0,0,15.61,0q2.92-2.92,2.93-8.78V200.49h11.22v54.63H655.37v-5.85h0c-3.42,4.39-8.3,6.34-14.15,6.34a19.26,19.26,0,0,1-12.2-4.88c-3.9-3.41-5.85-7.8-5.85-14.14v-36.1Z"/><path class="cls-1" d="M721.22,246.34a36.41,36.41,0,0,1-8.29,6.83,21.41,21.41,0,0,1-11.22,2.93,25.29,25.29,0,0,1-17.08-6.83c-4.87-4.39-7.8-11.71-7.8-21.47s2.93-17.07,7.8-21.46A24.8,24.8,0,0,1,701.71,200a27.18,27.18,0,0,1,11.22,2.44,28.26,28.26,0,0,1,8.29,6.83l-8.29,7.32c-2.93-3.91-6.34-5.86-11.22-5.86-9.27,0-14.15,5.37-14.15,17.07s4.88,17.08,14.15,17.08c4.88,0,8.29-1.95,11.22-5.86Z"/><path class="cls-1" d="M757.8,250.24h0c-1.46,2-2.92,3.42-4.87,3.91q-2.92,1.46-8.78,1.46c-6.35,0-10.74-1.46-14.15-4.88A14.87,14.87,0,0,1,724.63,239a17.49,17.49,0,0,1,4.39-11.7c2.93-2.93,7.32-4.88,13.18-4.88h15.12v-5.85c0-4.88-3.91-7.32-11.22-6.83a19,19,0,0,0-6.34,1,8.67,8.67,0,0,0-3.91,3.42l-8.78-6.83c4.39-5.37,10.25-8.3,18.54-7.81a33.48,33.48,0,0,1,16.59,3.9c3.9,2.93,6.34,7.32,6.34,14.15v37.56H757.32v-4.88Zm0-18.53H744.63c-6.34,0-9.75,2.44-9.75,6.83,0,2,1,3.41,2.44,4.87s4.39,2,7.8,2c4.39,0,7.81-.49,9.76-1.47s2.44-3.9,2.44-7.8v-4.39Z"/><path class="cls-1" d="M783.66,183.41h11.22V200h7.8v8.29h-7.8v32.2c0,2.92,1.46,3.9,3.9,3.9h3.9v10.24h-5.85a14.07,14.07,0,0,1-9.76-3.41,12.83,12.83,0,0,1-3.9-9.76V208.29H777.8V200h5.37V183.41Z"/><path class="cls-1" d="M813.41,178.05h11.22v11.22H813.41Zm0,22.44h11.22v54.63H813.41Z"/><path class="cls-1" d="M836.34,227.8q0-8.78,1.46-13.17a24.74,24.74,0,0,1,4.4-7.8,16.74,16.74,0,0,1,6.34-4.88c2.44-1.46,6.34-1.95,10.24-1.95A32.55,32.55,0,0,1,869.51,202c2.44,1.46,4.88,2.93,6.34,4.88a17.82,17.82,0,0,1,4.88,7.8q1.47,4.4,1.47,13.17T880.73,241a16.36,16.36,0,0,1-4.88,7.8c-.48,1-1.46,1.46-2.44,2.44a20.5,20.5,0,0,1-3.41,2.44,21.85,21.85,0,0,1-10.73,2.44A19.89,19.89,0,0,1,849,253.66a16.9,16.9,0,0,1-6.34-4.88,24.91,24.91,0,0,1-4.39-7.8C836.83,238.05,836.34,233.66,836.34,227.8Zm34.15,0c0-3.9,0-6.82-.49-8.78a9.29,9.29,0,0,0-2-4.39,6.57,6.57,0,0,0-3.42-2.92c-1.46-1-3.41-1-5.36-1a20.69,20.69,0,0,0-5.37,1,7.63,7.63,0,0,0-3.9,2.92,17.4,17.4,0,0,0-2,4.39c-.49,2-.49,4.39-.49,8.3s0,6.83.49,8.29a14.64,14.64,0,0,0,2,4.88,13.53,13.53,0,0,0,3.9,2.92c1.47,1,3.42,1,5.37,1a17.41,17.41,0,0,0,5.36-1c1.47-1,2.93-1.95,3.42-2.92,1-1.47,2-2.93,2-4.88C870.49,234.15,870.49,231.71,870.49,227.8Z"/><path class="cls-1" d="M893.41,200.49h11.22v5.85h0c3.42-4.39,8.3-6.34,14.15-6.34a18.87,18.87,0,0,1,12.68,4.88c3.91,3.41,5.86,7.8,5.86,14.14v36.59H926.1V222.93c0-3.91-1-6.83-2.93-8.78a10.3,10.3,0,0,0-7.8-2.93,11.09,11.09,0,0,0-7.81,2.93c-1.95,1.95-2.93,4.87-2.93,8.78v32.68H893.41V200.49Z"/><path class="cls-1" d="M541.22,362.93h0c-1.46,1.95-2.93,3.41-4.88,3.9q-2.93,1.46-8.78,1.46c-6.34,0-10.73-1.46-14.15-4.88a14.82,14.82,0,0,1-5.36-11.7A17.46,17.46,0,0,1,512.44,340c2.93-2.93,7.32-4.88,13.17-4.88h15.12v-5.85c0-4.88-3.9-7.32-11.22-6.83a19.35,19.35,0,0,0-6.34,1,8.71,8.71,0,0,0-3.9,3.42L510.49,320c4.39-5.37,10.24-8.29,18.53-7.8a33.35,33.35,0,0,1,16.59,3.9c3.9,2.92,6.34,7.31,6.34,14.14V367.8H540.73v-4.87Zm0-18.54H528.05c-6.34,0-9.76,2.44-9.76,6.83,0,1.95,1,3.41,2.44,4.88s4.39,1.95,7.81,1.95c4.39,0,7.8-.49,9.75-1.46s2.44-3.91,2.44-7.81v-4.39Z"/><path class="cls-1" d="M566.59,312.68H577.8v32.69q0,5.85,2.93,8.78a11.89,11.89,0,0,0,15.61,0q2.92-2.92,2.93-8.78V312.68h11.22V367.8H599.27V362h0c-3.42,4.39-8.29,6.34-14.15,6.34a19.21,19.21,0,0,1-12.19-4.88c-3.91-3.41-5.86-7.8-5.86-14.14V312.68Z"/><path class="cls-1" d="M643.66,358.05c2.93,0,5.85-.49,7.8-1.95s2.93-2.93,2.93-5.37c0-2-.49-3.41-1.95-3.9a8.21,8.21,0,0,0-4.88-1.46l-9.76-1c-4.39-.49-8.29-1.95-11.21-4.88-2.93-2.44-4.39-6.34-4.39-10.73,0-5.85,1.95-9.76,5.85-12.68s8.78-4.39,14.63-4.39a29.86,29.86,0,0,1,6.83.49l5.86,1.46a57.11,57.11,0,0,1,9.26,5.36l-6.83,7.81a31.12,31.12,0,0,0-6.82-3.9,20.16,20.16,0,0,0-7.81-1.47c-3.41,0-5.85.49-7.32,2a6.29,6.29,0,0,0-2,4.88,4.43,4.43,0,0,0,1.47,3.42c1,1,2.92,1.46,5.36,2l9.27.49c5.85.48,9.76,2,12.2,5.36,2.43,2.93,3.41,6.83,3.41,11.22a14.6,14.6,0,0,1-6.34,12.2q-6.59,4.38-16.1,4.39c-8.78,0-17.07-3.42-24.39-9.76l7.81-7.32C631,355.61,636.83,358.05,643.66,358.05Z"/><path class="cls-1" d="M677.32,296.1h11.22v16.58h7.8V321h-7.8v32.19c0,2.93,1.46,3.9,3.9,3.9h3.9V367.8h-5.85a14.07,14.07,0,0,1-9.76-3.41,12.83,12.83,0,0,1-3.9-9.76V321.46H672v-8.29h5.37Z"/><path class="cls-1" d="M706.59,312.68H717.8v5.86h0c3.42-4.39,8.3-6.34,14.15-6.34a17.48,17.48,0,0,1,11.71,4.39l-7.81,9.75a11.71,11.71,0,0,0-7.31-2.93,9.93,9.93,0,0,0-7.32,2.93c-2.44,2-3.42,4.88-3.42,8.78V367.8H706.59V312.68Z"/><path class="cls-1" d="M749,290.73h11.22V302H749Zm0,21.95h11.22V367.8H749Z"/><path class="cls-1" d="M803.66,362.93h0c-1.46,1.95-2.93,3.41-4.88,3.9q-2.92,1.46-8.78,1.46c-6.34,0-10.73-1.46-14.15-4.88a14.82,14.82,0,0,1-5.36-11.7A17.46,17.46,0,0,1,774.88,340c2.92-2.93,7.32-4.88,13.17-4.88h15.12v-5.85c0-4.88-3.9-7.32-11.22-6.83a19.3,19.3,0,0,0-6.34,1,8.71,8.71,0,0,0-3.9,3.42L772.93,320c4.39-5.37,10.24-8.29,18.53-7.8a33.35,33.35,0,0,1,16.59,3.9c3.9,2.92,6.34,7.31,6.34,14.14V367.8H803.66Zm0-18.54H790.49c-6.34,0-9.76,2.44-9.76,6.83,0,1.95,1,3.41,2.44,4.88s4.39,1.95,7.81,1.95c4.39,0,7.8-.49,9.75-1.46s2.44-3.91,2.44-7.81v-4.39Z"/><circle id="SVGID" class="cls-2" cx="251.95" cy="220.49" r="189.27"/><path class="cls-3" d="M301.22,313.66a252.46,252.46,0,0,1-142.44,71.71A189.53,189.53,0,0,0,252,409.76c104.39,0,189.27-84.88,189.27-189.27A188.59,188.59,0,0,0,367.56,70.73a248.1,248.1,0,0,1,7.81,63.42C375.85,202,349.51,265.37,301.22,313.66Z"/><path class="cls-4" d="M124.15,360c123.9-1.46,223.9-101.95,223.9-226.34a225.39,225.39,0,0,0-16.59-85.37C309,38.54,285.12,32.2,259.76,31.22A199,199,0,0,1,262.2,61c0,96.58-78.54,175.61-175.61,175.61a187.85,187.85,0,0,1-23.42-1.47A188.83,188.83,0,0,0,124.15,360Z"/><path class="cls-5" d="M63.17,206.83a190.63,190.63,0,0,0,23.42,1.95A147.18,147.18,0,0,0,233.9,61.46,140.64,140.64,0,0,0,231,32.68C141.22,42,70,115.61,63.17,206.83Z"/></svg>